<?xml version="1.0" encoding="UTF-8" standalone="no"?>
<svg
   xmlns:dc="http://purl.org/dc/elements/1.1/"
   xmlns:cc="http://creativecommons.org/ns#"
   xmlns:rdf="http://www.w3.org/1999/02/22-rdf-syntax-ns#"
   xmlns:svg="http://www.w3.org/2000/svg"
   xmlns="http://www.w3.org/2000/svg"
   xmlns:sodipodi="http://sodipodi.sourceforge.net/DTD/sodipodi-0.dtd"
   xmlns:inkscape="http://www.inkscape.org/namespaces/inkscape"
   version="1.1"
   id="svg2"
   xml:space="preserve"
   width="6666.6665"
   height="4000"
   viewBox="0 0 6666.6665 4000"
   sodipodi:docname="vecteezy_dice-game-line-icon-set-pipped-dices-toss-from-one-to_6923039.eps"><metadata
     id="metadata8"><rdf:RDF><cc:Work
         rdf:about=""><dc:format>image/svg+xml</dc:format><dc:type
           rdf:resource="http://purl.org/dc/dcmitype/StillImage" /></cc:Work></rdf:RDF></metadata><defs
     id="defs6" /><sodipodi:namedview
     pagecolor="#ffffff"
     bordercolor="#666666"
     borderopacity="1"
     objecttolerance="10"
     gridtolerance="10"
     guidetolerance="10"
     inkscape:pageopacity="0"
     inkscape:pageshadow="2"
     inkscape:window-width="640"
     inkscape:window-height="480"
     id="namedview4" /><g
     id="g10"
     inkscape:groupmode="layer"
     inkscape:label="ink_ext_XXXXXX"
     transform="matrix(1.3333333,0,0,-1.3333333,0,4000)"><g
       id="g12"
       transform="scale(0.1)"><path
         d="M 16089.2,16796.7 H 9040.73 c -441.82,0 -800,358.2 -800,800 v 7048.5 c 0,441.8 358.18,800 800,800 h 7048.47 c 441.8,0 800,-358.2 800,-800 v -7048.5 c 0,-441.8 -358.2,-800 -800,-800 z"
         style="fill:none;stroke:#fff;stroke-width:597.919;stroke-linecap:butt;stroke-linejoin:miter;stroke-miterlimit:10;stroke-dasharray:none;stroke-opacity:1"
         id="path16" /><path
         d="m 13210.4,21120.9 c 0,-356.5 -289,-645.4 -645.4,-645.4 -356.5,0 -645.5,288.9 -645.5,645.4 0,356.5 289,645.5 645.5,645.5 356.4,0 645.4,-289 645.4,-645.5"
         style="fill:#fff;fill-opacity:1;fill-rule:nonzero;stroke:none"
         id="path18" /><path
         d="m 28524.2,16796.7 h -7048.4 c -441.9,0 -800,358.2 -800,800 v 7048.5 c 0,441.8 358.1,800 800,800 h 7048.4 c 441.9,0 800,-358.2 800,-800 v -7048.5 c 0,-441.8 -358.1,-800 -800,-800 z"
         style="fill:none;stroke:#fff;stroke-width:597.919;stroke-linecap:butt;stroke-linejoin:miter;stroke-miterlimit:10;stroke-dasharray:none;stroke-opacity:1"
         id="path20" /><path
         d="m 27296.9,19469.5 c 0,-356.5 -289,-645.5 -645.5,-645.5 -356.4,0 -645.4,289 -645.4,645.5 0,356.5 289,645.4 645.4,645.4 356.5,0 645.5,-288.9 645.5,-645.4"
         style="fill:#fff;fill-opacity:1;fill-rule:nonzero;stroke:none"
         id="path22" /><path
         d="m 23994,22772.4 c 0,-356.5 -289,-645.5 -645.5,-645.5 -356.4,0 -645.4,289 -645.4,645.5 0,356.5 289,645.4 645.4,645.4 356.5,0 645.5,-288.9 645.5,-645.4"
         style="fill:#fff;fill-opacity:1;fill-rule:nonzero;stroke:none"
         id="path24" /><path
         d="m 28524.2,4554.8 h -7048.4 c -441.9,0 -800,358.2 -800,800 v 7048.5 c 0,441.8 358.1,800 800,800 h 7048.4 c 441.9,0 800,-358.2 800,-800 V 5354.8 c 0,-441.8 -358.1,-800 -800,-800 z"
         style="fill:none;stroke:#fff;stroke-width:597.919;stroke-linecap:butt;stroke-linejoin:miter;stroke-miterlimit:10;stroke-dasharray:none;stroke-opacity:1"
         id="path26" /><path
         d="m 25645.5,8879.1 c 0,-356.5 -289,-645.5 -645.5,-645.5 -356.5,0 -645.5,289 -645.5,645.5 0,356.4 289,645.4 645.5,645.4 356.5,0 645.5,-289 645.5,-645.4"
         style="fill:#fff;fill-opacity:1;fill-rule:nonzero;stroke:none"
         id="path28" /><path
         d="m 40959.3,16796.7 h -7048.5 c -441.8,0 -800,358.2 -800,800 v 7048.5 c 0,441.8 358.2,800 800,800 h 7048.5 c 441.8,0 800,-358.2 800,-800 v -7048.5 c 0,-441.8 -358.2,-800 -800,-800 z"
         style="fill:none;stroke:#fff;stroke-width:597.919;stroke-linecap:butt;stroke-linejoin:miter;stroke-miterlimit:10;stroke-dasharray:none;stroke-opacity:1"
         id="path30" /><path
         d="m 36155,23071.3 c 0,-356.4 -289,-645.4 -645.5,-645.4 -356.4,0 -645.4,289 -645.4,645.4 0,356.5 289,645.5 645.4,645.5 356.5,0 645.5,-289 645.5,-645.5"
         style="fill:#fff;fill-opacity:1;fill-rule:nonzero;stroke:none"
         id="path32" /><path
         d="m 38080.5,21120.9 c 0,-356.5 -289,-645.4 -645.5,-645.4 -356.5,0 -645.4,288.9 -645.4,645.4 0,356.5 288.9,645.5 645.4,645.5 356.5,0 645.5,-289 645.5,-645.5"
         style="fill:#fff;fill-opacity:1;fill-rule:nonzero;stroke:none"
         id="path34" /><path
         d="m 40006,19170.5 c 0,-356.5 -289,-645.4 -645.5,-645.4 -356.5,0 -645.4,288.9 -645.4,645.4 0,356.5 288.9,645.5 645.4,645.5 356.5,0 645.5,-289 645.5,-645.5"
         style="fill:#fff;fill-opacity:1;fill-rule:nonzero;stroke:none"
         id="path36" /><path
         d="m 40959.3,4554.8 h -7048.5 c -441.8,0 -800,358.2 -800,800 v 7048.5 c 0,441.8 358.2,800 800,800 h 7048.5 c 441.8,0 800,-358.2 800,-800 V 5354.8 c 0,-441.8 -358.2,-800 -800,-800 z"
         style="fill:none;stroke:#fff;stroke-width:597.919;stroke-linecap:butt;stroke-linejoin:miter;stroke-miterlimit:10;stroke-dasharray:none;stroke-opacity:1"
         id="path38" /><path
         d="m 36191.6,10988.2 c 0,-356.5 -289,-645.5 -645.4,-645.5 -356.5,0 -645.5,289 -645.5,645.5 0,356.5 289,645.5 645.5,645.5 356.4,0 645.4,-289 645.4,-645.5"
         style="fill:#fff;fill-opacity:1;fill-rule:nonzero;stroke:none"
         id="path40" /><path
         d="m 39969.4,10988.2 c 0,-356.5 -289,-645.5 -645.5,-645.5 -356.5,0 -645.5,289 -645.5,645.5 0,356.5 289,645.5 645.5,645.5 356.5,0 645.5,-289 645.5,-645.5"
         style="fill:#fff;fill-opacity:1;fill-rule:nonzero;stroke:none"
         id="path42" /><path
         d="m 36191.6,8879.1 c 0,-356.5 -289,-645.5 -645.4,-645.5 -356.5,0 -645.5,289 -645.5,645.5 0,356.4 289,645.4 645.5,645.4 356.4,0 645.4,-289 645.4,-645.4"
         style="fill:#fff;fill-opacity:1;fill-rule:nonzero;stroke:none"
         id="path44" /><path
         d="m 39969.4,8879.1 c 0,-356.5 -289,-645.5 -645.5,-645.5 -356.5,0 -645.5,289 -645.5,645.5 0,356.4 289,645.4 645.5,645.4 356.5,0 645.5,-289 645.5,-645.4"
         style="fill:#fff;fill-opacity:1;fill-rule:nonzero;stroke:none"
         id="path46" /><path
         d="m 36191.6,6769.9 c 0,-356.4 -289,-645.4 -645.4,-645.4 -356.5,0 -645.5,289 -645.5,645.4 0,356.5 289,645.5 645.5,645.5 356.4,0 645.4,-289 645.4,-645.5"
         style="fill:#fff;fill-opacity:1;fill-rule:nonzero;stroke:none"
         id="path48" /><path
         d="m 39969.4,6769.9 c 0,-356.4 -289,-645.4 -645.5,-645.4 -356.5,0 -645.5,289 -645.5,645.4 0,356.5 289,645.5 645.5,645.5 356.5,0 645.5,-289 645.5,-645.5"
         style="fill:#fff;fill-opacity:1;fill-rule:nonzero;stroke:none"
         id="path50" /><path
         d="M 16089.2,4554.8 H 9040.73 c -441.82,0 -800,358.2 -800,800 v 7048.5 c 0,441.8 358.18,800 800,800 h 7048.47 c 441.8,0 800,-358.2 800,-800 V 5354.8 c 0,-441.8 -358.2,-800 -800,-800 z"
         style="fill:none;stroke:#fff;stroke-width:597.919;stroke-linecap:butt;stroke-linejoin:miter;stroke-miterlimit:10;stroke-dasharray:none;stroke-opacity:1"
         id="path52" /><path
         d="m 11321.6,10988.2 c 0,-356.5 -289,-645.5 -645.5,-645.5 -356.5,0 -645.5,289 -645.5,645.5 0,356.5 289,645.5 645.5,645.5 356.5,0 645.5,-289 645.5,-645.5"
         style="fill:#fff;fill-opacity:1;fill-rule:nonzero;stroke:none"
         id="path54" /><path
         d="m 15099.3,10988.2 c 0,-356.5 -289,-645.5 -645.5,-645.5 -356.4,0 -645.4,289 -645.4,645.5 0,356.5 289,645.5 645.4,645.5 356.5,0 645.5,-289 645.5,-645.5"
         style="fill:#fff;fill-opacity:1;fill-rule:nonzero;stroke:none"
         id="path56" /><path
         d="m 11321.6,6769.9 c 0,-356.4 -289,-645.4 -645.5,-645.4 -356.5,0 -645.5,289 -645.5,645.4 0,356.5 289,645.5 645.5,645.5 356.5,0 645.5,-289 645.5,-645.5"
         style="fill:#fff;fill-opacity:1;fill-rule:nonzero;stroke:none"
         id="path58" /><path
         d="m 15099.3,6769.9 c 0,-356.4 -289,-645.4 -645.5,-645.4 -356.4,0 -645.4,289 -645.4,645.4 0,356.5 289,645.5 645.4,645.5 356.5,0 645.5,-289 645.5,-645.5"
         style="fill:#fff;fill-opacity:1;fill-rule:nonzero;stroke:none"
         id="path60" /><path
         d="m 23756.6,10988.2 c 0,-356.5 -289,-645.5 -645.5,-645.5 -356.4,0 -645.4,289 -645.4,645.5 0,356.5 289,645.5 645.4,645.5 356.5,0 645.5,-289 645.5,-645.5"
         style="fill:#fff;fill-opacity:1;fill-rule:nonzero;stroke:none"
         id="path62" /><path
         d="m 27534.3,10988.2 c 0,-356.5 -289,-645.5 -645.4,-645.5 -356.5,0 -645.5,289 -645.5,645.5 0,356.5 289,645.5 645.5,645.5 356.4,0 645.4,-289 645.4,-645.5"
         style="fill:#fff;fill-opacity:1;fill-rule:nonzero;stroke:none"
         id="path64" /><path
         d="m 23756.6,6769.9 c 0,-356.4 -289,-645.4 -645.5,-645.4 -356.4,0 -645.4,289 -645.4,645.4 0,356.5 289,645.5 645.4,645.5 356.5,0 645.5,-289 645.5,-645.5"
         style="fill:#fff;fill-opacity:1;fill-rule:nonzero;stroke:none"
         id="path66" /><path
         d="m 27534.3,6769.9 c 0,-356.4 -289,-645.4 -645.4,-645.4 -356.5,0 -645.5,289 -645.5,645.4 0,356.5 289,645.5 645.5,645.5 356.4,0 645.4,-289 645.4,-645.5"
         style="fill:#fff;fill-opacity:1;fill-rule:nonzero;stroke:none"
         id="path68" /></g></g></svg>
